<?xml version="1.0" encoding="UTF-8" standalone="no"?>
<svg
   id="svg4653"
   height="438"
   viewBox="0 0 374 438"
   width="374"
   version="1.1"
   sodipodi:docname="palm-tree.svg"
   inkscape:version="1.4.3 (0d15f75042, 2025-12-25)"
   xmlns:inkscape="http://www.inkscape.org/namespaces/inkscape"
   xmlns:sodipodi="http://sodipodi.sourceforge.net/DTD/sodipodi-0.dtd"
   xmlns="http://www.w3.org/2000/svg"
   xmlns:svg="http://www.w3.org/2000/svg">
  <defs
     id="defs1" />
  <sodipodi:namedview
     id="namedview1"
     pagecolor="#ffffff"
     bordercolor="#000000"
     borderopacity="0.25"
     inkscape:showpageshadow="2"
     inkscape:pageopacity="0.0"
     inkscape:pagecheckerboard="0"
     inkscape:deskcolor="#d1d1d1"
     inkscape:zoom="2.0022831"
     inkscape:cx="186.78677"
     inkscape:cy="219"
     inkscape:window-width="1900"
     inkscape:window-height="1022"
     inkscape:window-x="0"
     inkscape:window-y="0"
     inkscape:window-maximized="1"
     inkscape:current-layer="svg4653" />
  <path
     id="path4663"
     d="m105.5 437.33c-13.213-0.59823-13.268-0.62495-16.591-8.0299-1.6252-3.6222-4.2806-8.0958-5.901-9.9413-3.086-3.52-3.089-5.88-0.008-6.86 3.1222-0.99093 3.1509-3.5804 0.1118-10.075-3.7024-7.9118-2.6788-10.755 3.117-8.6594 1.877 0.67 3.912 1.23 4.521 1.23 1.577 0 4.25-9.9 4.25-15.74 0-2.7133 0.69209-9.394 1.538-14.846 0.84589-5.4521 1.943-13.623 2.438-18.158 0.495-4.5348 1.1747-8.6897 1.5105-9.233 0.33578-0.54331 1.0106-5.158 1.4995-10.255 0.92333-9.6253 2.4568-20.029 4.0928-27.767 0.52327-2.475 1.3589-8.1 1.857-12.5s1.8046-11.375 2.9033-15.5 3.6402-14.7 5.6477-23.5c6.1664-27.03 18.084-65.857 23.43-76.338 2.05-4.0183 2.8006-9.1724 1.3327-9.1512-0.4125 0.006-2.8983 0.66269-5.524 1.4594-6.8788 2.0872-8.0269 1.3534-7.2073-4.606 0.4907-3.5678 0.33787-4.8642-0.57341-4.8642-2.0771 0-16.75 8.4493-29.445 16.956-11.332 7.5935-15.574 9.351-17 7.044-1.1183-1.8094-2.1898-1.0798-9.6052 6.5405-8.933 9.1798-11.592 9.7112-11.055 2.2095 0.5707-7.9714-3.2246-5.104-20.847 15.75-31.747 37.57-37.079 37.09-33.744-3 0.2173-2.61-0.1758-3.13-3-3.96-1.7875-0.52623-3.2432-1.4262-3.235-2 0.043553-3.02 5.1345-16.76 7.985-21.54 1.8037-3.025 4.0633-6.85 5.0215-8.5 5.2018-8.958 9.2527-15.186 11.351-17.452 1.2977-1.4013 2.7572-3.289 3.2433-4.1949 1.5398-2.8696 12.823-14.145 19.866-19.853 3.7327-3.025 8.0639-6.7102 9.6249-8.1894 3.185-3.02 24.702-13.51 35.144-17.139 4.224-1.468 1.845-3.671-3.962-3.671-4.8125 0-6.0334-0.38081-7.75-2.4173-2.2106-2.6225-8.0927-2.2433-22.296 1.4372-6.651 1.7235-8.0112 0.75133-6.1501-4.3954 2.3622-6.5326-7.4639-3.1494-21.798 7.5051-6.266 4.656-7.774 4.8-9.144 0.87-0.575-1.65-1.312-3-1.638-3-0.723 0-7.402 3.587-9.6261 5.17-1.9247 1.369-4.8859 0.46-4.8859-1.5 0-2.588 9.592-15.565 18.254-24.696 4.866-5.129 8.873-10.276 9.216-11.837 0.712-3.242 24.9-26.137 27.613-26.137 1.434 0 1.844-3.143 0.658-5.043-2.802-4.487 6.512-9.991 26.759-15.811 16.137-4.6388 34.011-4.4532 44 0.45697 4.9566 2.4365 12.21 4.7525 20.09 6.4144 2.2495 0.47446 5.6245 1.5228 7.5 2.3297 1.8754 0.80686 6.3349 2.6641 9.9099 4.1272s8.1027 3.5111 10.062 4.5511c8.7919 4.6679 16.422 3.4513 23.165-3.6932 2.3505-2.4907 7.4237-6.5819 11.274-9.0916 3.85-2.5097 8.4199-5.7893 10.155-7.2881 9.2409-7.9805 44.103-12.933 63.904-9.0779 6.2375 1.2144 7.4125 1.1917 10.095-0.19554 2.6416-1.366 3.7379-1.398 8.4409-0.24657 2.9727 0.72785 8.78 1.8582 12.905 2.5118 16.805 2.6629 36.446 9.5188 41.982 14.654 1.9347 1.7946 5.2224 4.7059 7.3059 6.4695 8.5139 7.2066 7.1639 10.491-3.8867 9.4552-8.1343-0.76224-9.5441 0.08432-6.889 4.1366 2.7108 4.1373-5.8587 8.6802-11.982 6.352-8.4042-3.1953-27.272-0.65007-22.689 3.0607 6.241 5.0537-0.29783 8.2859-19.248 9.5146-20.092 1.3027-42.064 10.515-30.908 12.959 1.55 0.34 3.94 1.025 5.32 1.524 4.86 1.763 20.05 5.931 21.61 5.931 0.87107 0 3.0018 0.64312 4.7349 1.4292 1.7331 0.78603 6.7178 2.8291 11.077 4.5402 8.2139 3.2241 19.501 10.13 23.199 14.195 10.689 11.747 23.344 36.109 23.368 44.98 0.004 1.4546 0.95352 5.7092 2.1104 9.4548 2.128 6.8896 2.1661 9.7854 0.31764 24.15-0.80617 6.2651-2.5453 6.8174-6.9594 2.21-4.1138-4.2939-6.5863-3.6376-8.4617 2.246-2.8538 8.9532-4.4638 8.7773-9.43-1.0304-7.1745-14.169-10.94-17.332-13.274-11.149-1.5591 4.1305-3.4227 3.7449-9.796-2.0267-6.4294-5.8225-7.6171-6.0487-10.5-2-2.5354 3.5606-5.4677 3.8693-7.1252 0.75-2.0734-3.9021-14.136-15.816-20.205-19.956-10.171-6.9381-15.845-8.9655-31.67-11.315-5.225-0.77591-10.957-1.7013-12.738-2.0563-9.396-1.8731-2.3078 7.3356 17.118 22.239 14.311 10.98 22.751 28.86 20.67 43.788-2.1696 15.559-3.0744 18.952-5.6245 21.091-2.3514 1.9726-2.4443 2.5563-2.7865 17.5-0.44518 19.441-2.1932 24.62-6.2301 18.459-3.3113-5.0536-6.6634-2.7134-7.6933 5.3711-0.65043 5.1054-1.9616 6.9051-3.615 4.9619-2.0839-2.4489-5.9976-8.2935-8.0432-12.011-1.1131-2.023-4.8436-6.5843-8.2901-10.136-3.4465-3.552-8.0065-8.5588-10.133-11.126-4.1429-5.0011-7.8365-5.9054-8.4118-2.0595-0.74686 4.9932-1.3546 6.5-2.6216 6.5-1.6576 0-5.3898-4.7715-8.9949-11.5-1.4734-2.75-3.6124-6.4774-4.7532-8.283-2.286-3.6182-7.7628-18.68-7.8172-21.498-0.0499-2.5865-2.8-3.2407-5.0528-1.2019-2.7395 2.4792-4.7206 0.55271-5.5001-5.3485-3.4148-25.852-9.9093-29.904-17.098-10.668-1.4388 3.85-4.1766 10.825-6.0839 15.5-7.8062 19.134-16.665 50.135-17.896 62.632-0.37233 3.7773-1.233 7.9929-1.9127 9.3679-1.1196 2.265-3.7925 18.638-4.8977 30-0.24073 2.475-1.6292 12.825-3.0854 23-2.2138 15.468-2.7099 23-3.0272 45.958-0.45314 32.788-0.023 34.087 8.7911 26.542 4.7614-4.0756 5.7496-4.2408 8.324-1.3918 1.5893 1.7588 2.6741 2.0174 6.546 1.56 10.806-1.2764 9.2751 2.4126-5.8335 14.059-6.6482 5.1246-7.4455 6.9334-4.3075 9.7732 1.1 0.99549 2 2.4811 2 3.3013 0 2.3655-16.788 18.197-19.313 18.212-1.2028 0.008-3.0868 0.15262-4.1868 0.32245-1.1 0.16984-5.15 0.16618-9-0.008z"
     style="fill:#2a77ed;fill-opacity:1" />
</svg>
